# xmcd
# 
# Track frame offsets:
#   150
#   14457
#   30607
#   49430
#   67072
#   84182
#   101015
#   115590
#   131085
#   147612
#   163010
#   176607
#   189912
#   205375
# 
# Disc length: 2921 seconds
# 
# Revision: 3
# Processed by: cddbd v1.5.1PL0 Copyright (c) Steve Scherf et al.
# Submitted via: Synapstar 1.0 
# 
DISCID=c80b670e
DTITLE=Various Artist - SD030 - Country Hits Today
DYEAR=1900
DGENRE=Country
TTITLE0=Mindy McCready - Guys Do It All The Time
TTITLE1=James Bonamy - I Don't Think I Will
TTITLE2=Shania Twain - Home Ain't Where His Heart Is
TTITLE3=Alabama - The Maker Said Take Her
TTITLE4=David Lee Murphy - The Road You Leave Behind
TTITLE5=Trisha Yearwood - Believe Me Baby
TTITLE6=Ricochet - Love Is Stronger Than Pride
TTITLE7=Diamond Rio - It's All In Your Head
TTITLE8=Kenny Chesney - Me And You
TTITLE9=Paul Brandt - My Heart Has A History
TTITLE10=Sammy Kershaw - Vidalia
TTITLE11=Jo Dee Messina - You're Not In Kansas Anymore
TTITLE12=Ty England - Irresistable You
TTITLE13=Marty Stuart and Travis Tritt - Honky Tonkin's What I Do Best
EXTD=
EXTT0=
EXTT1=
EXTT2=
EXTT3=
EXTT4=
EXTT5=
EXTT6=
EXTT7=
EXTT8=
EXTT9=
EXTT10=
EXTT11=
EXTT12=
EXTT13=
PLAYORDER=
